<svg width="88" height="87" viewBox="0 0 88 87" fill="none" xmlns="http://www.w3.org/2000/svg">
<path d="M44 0C35.3965 0 26.9862 2.55123 19.8327 7.33107C12.6792 12.1109 7.10367 18.9047 3.81126 26.8533C0.518848 34.8018 -0.342597 43.5482 1.33586 51.9864C3.01432 60.4246 7.15729 68.1755 13.2409 74.2591C19.3245 80.3427 27.0754 84.4857 35.5136 86.1641C43.9518 87.8426 52.6982 86.9812 60.6467 83.6887C68.5953 80.3963 75.3891 74.8208 80.1689 67.6673C84.9488 60.5138 87.5 52.1035 87.5 43.5C87.5 37.7875 86.3748 32.1309 84.1888 26.8533C82.0027 21.5756 78.7985 16.7802 74.7591 12.7409C70.7198 8.7015 65.9244 5.49732 60.6467 3.31124C55.3691 1.12516 49.7125 0 44 0ZM28.775 19.575C30.4957 19.575 32.1778 20.0852 33.6085 21.0412C35.0392 21.9972 36.1543 23.3559 36.8128 24.9456C37.4712 26.5354 37.6435 28.2846 37.3078 29.9723C36.9722 31.6599 36.1436 33.2101 34.9268 34.4268C33.7101 35.6435 32.1599 36.4721 30.4723 36.8078C28.7847 37.1435 27.0354 36.9712 25.4457 36.3127C23.8559 35.6543 22.4972 34.5392 21.5412 33.1085C20.5853 31.6777 20.075 29.9957 20.075 28.275C20.075 25.9676 20.9916 23.7547 22.6232 22.1232C24.2547 20.4916 26.4676 19.575 28.775 19.575ZM29.6755 63.9754C29.2742 64.3909 28.7942 64.7223 28.2635 64.9503C27.7328 65.1783 27.1619 65.2983 26.5844 65.3033C26.0068 65.3083 25.434 65.1982 24.8994 64.9795C24.3648 64.7608 23.8791 64.4378 23.4706 64.0294C23.0622 63.6209 22.7392 63.1352 22.5205 62.6006C22.3018 62.066 22.1917 61.4932 22.1967 60.9156C22.2017 60.3381 22.3217 59.7672 22.5497 59.2365C22.7777 58.7058 23.1091 58.2258 23.5246 57.8245L58.3246 23.0245C58.7258 22.6091 59.2058 22.2777 59.7365 22.0497C60.2673 21.8217 60.8381 21.7017 61.4157 21.6967C61.9933 21.6917 62.5661 21.8017 63.1007 22.0205C63.6353 22.2392 64.1209 22.5622 64.5294 22.9706C64.9378 23.3791 65.2608 23.8647 65.4795 24.3993C65.6983 24.9339 65.8083 25.5068 65.8033 26.0843C65.7983 26.6619 65.6783 27.2327 65.4503 27.7635C65.2223 28.2942 64.8909 28.7742 64.4755 29.1754L29.6755 63.9754ZM59.225 67.425C57.5043 67.425 55.8223 66.9147 54.3915 65.9588C52.9608 65.0028 51.8457 63.6441 51.1873 62.0543C50.5288 60.4646 50.3565 58.7153 50.6922 57.0277C51.0279 55.3401 51.8565 53.7899 53.0732 52.5732C54.2899 51.3564 55.8401 50.5278 57.5277 50.1922C59.2154 49.8565 60.9646 50.0288 62.5544 50.6872C64.1441 51.3457 65.5028 52.4608 66.4588 53.8915C67.4148 55.3222 67.925 57.0043 67.925 58.725C67.925 61.0324 67.0084 63.2452 65.3768 64.8768C63.7453 66.5084 61.5324 67.425 59.225 67.425Z" fill="url(#paint0_linear_10_450)"/>
<defs>
<linearGradient id="paint0_linear_10_450" x1="44" y1="0" x2="44" y2="87" gradientUnits="userSpaceOnUse">
<stop stop-color="#06AA9D"/>
<stop offset="1" stop-color="#00D3C2"/>
</linearGradient>
</defs>
</svg>
