<svg width="18" height="16" viewBox="0 0 18 16" fill="none" xmlns="http://www.w3.org/2000/svg">
<path d="M9.25 0C10.6026 0 11.8998 0.532329 12.8562 1.47988C13.8127 2.42743 14.35 3.71259 14.35 5.05263V5.89474H17.75V7.57895H16.7581L16.1146 15.2278C16.0969 15.4382 16.0001 15.6344 15.8433 15.7774C15.6865 15.9204 15.4811 15.9999 15.268 16H3.232C3.01886 15.9999 2.81354 15.9204 2.65674 15.7774C2.49993 15.6344 2.40309 15.4382 2.3854 15.2278L1.7411 7.57895H0.75V5.89474H4.15V5.05263C4.15 3.71259 4.68732 2.42743 5.64376 1.47988C6.60019 0.532329 7.8974 0 9.25 0ZM15.0521 7.57895H3.44705L4.014 14.3158H14.4852L15.0521 7.57895ZM10.1 9.26316V12.6316H8.4V9.26316H10.1ZM6.7 9.26316V12.6316H5V9.26316H6.7ZM13.5 9.26316V12.6316H11.8V9.26316H13.5ZM9.25 1.68421C8.37769 1.68421 7.53876 2.01637 6.90671 2.61198C6.27466 3.20759 5.89787 4.02109 5.85425 4.88421L5.85 5.05263V5.89474H12.65V5.05263C12.65 4.18843 12.3147 3.35728 11.7135 2.73111C11.1123 2.10493 10.2912 1.73163 9.42 1.68842L9.25 1.68421Z" fill="#212121"/>
</svg>
