<svg width="110" height="89" viewBox="0 0 110 89" fill="none" xmlns="http://www.w3.org/2000/svg">
<path d="M107.25 61H104.5V42.4203C104.5 40.2375 103.623 38.1406 102.077 36.5938L84.9063 19.4234C83.3594 17.8766 81.2625 17 79.0797 17H71.5V8.75C71.5 4.19531 67.8047 0.5 63.25 0.5H19.25C14.6953 0.5 11 4.19531 11 8.75V17H1.375C0.61875 17 0 17.6187 0 18.375V21.125C0 21.8812 0.61875 22.5 1.375 22.5H48.125C48.8813 22.5 49.5 23.1187 49.5 23.875V26.625C49.5 27.3813 48.8813 28 48.125 28H6.875C6.11875 28 5.5 28.6187 5.5 29.375V32.125C5.5 32.8813 6.11875 33.5 6.875 33.5H42.625C43.3813 33.5 44 34.1187 44 34.875V37.625C44 38.3812 43.3813 39 42.625 39H1.375C0.61875 39 0 39.6188 0 40.375V43.125C0 43.8812 0.61875 44.5 1.375 44.5H37.125C37.8813 44.5 38.5 45.1188 38.5 45.875V48.625C38.5 49.3812 37.8813 50 37.125 50H11V72C11 81.1094 18.3906 88.5 27.5 88.5C36.6094 88.5 44 81.1094 44 72H66C66 81.1094 73.3906 88.5 82.5 88.5C91.6094 88.5 99 81.1094 99 72H107.25C108.763 72 110 70.7625 110 69.25V63.75C110 62.2375 108.763 61 107.25 61ZM27.5 80.25C22.9453 80.25 19.25 76.5547 19.25 72C19.25 67.4453 22.9453 63.75 27.5 63.75C32.0547 63.75 35.75 67.4453 35.75 72C35.75 76.5547 32.0547 80.25 27.5 80.25ZM82.5 80.25C77.9453 80.25 74.25 76.5547 74.25 72C74.25 67.4453 77.9453 63.75 82.5 63.75C87.0547 63.75 90.75 67.4453 90.75 72C90.75 76.5547 87.0547 80.25 82.5 80.25ZM96.25 44.5H71.5V25.25H79.0797L96.25 42.4203V44.5Z" fill="url(#paint0_linear_10_438)"/>
<defs>
<linearGradient id="paint0_linear_10_438" x1="7" y1="50" x2="106" y2="49" gradientUnits="userSpaceOnUse">
<stop stop-color="#FF9385"/>
<stop offset="1" stop-color="#FF512F"/>
</linearGradient>
</defs>
</svg>
