<svg width="20" height="19" viewBox="0 0 20 19" fill="none" xmlns="http://www.w3.org/2000/svg">
<path d="M10.0008 1.98886C12.3498 -0.0648025 15.9797 0.00336114 18.2427 2.21088C20.5046 4.41938 20.5826 7.93661 18.4787 10.2308L9.99882 18.5L1.52098 10.2308C-0.582983 7.93661 -0.503984 4.41354 1.75697 2.21088C4.02193 0.00628245 7.64486 -0.0677238 10.0008 1.98886ZM16.8267 3.58681C15.3267 2.12422 12.9068 2.06482 11.3368 3.43782L10.0018 4.60439L8.66584 3.4388C7.09087 2.06384 4.67592 2.12422 3.17195 3.58876C1.68197 5.03967 1.60698 7.36209 2.97995 8.89674L9.99982 15.7433L17.0197 8.89772C18.3937 7.36209 18.3187 5.04259 16.8267 3.58681Z" fill="url(#paint0_linear_93_1491)"/>
<defs>
<linearGradient id="paint0_linear_93_1491" x1="0" y1="9.5" x2="20" y2="9.5" gradientUnits="userSpaceOnUse">
<stop stop-color="#E52D27"/>
<stop offset="1" stop-color="#B31217"/>
</linearGradient>
</defs>
</svg>
