<svg width="18" height="17" viewBox="0 0 18 17" fill="none" xmlns="http://www.w3.org/2000/svg">
<g clip-path="url(#clip0_95_26)">
<path d="M8.99663 1.53165C11.2667 1.53165 11.5331 1.54177 12.4304 1.58226C13.2601 1.61937 13.7087 1.75769 14.0089 1.87577C14.4069 2.03096 14.6903 2.21314 14.9871 2.51002C15.2839 2.80691 15.4694 3.0903 15.6212 3.48839C15.7359 3.78865 15.8776 4.23735 15.9147 5.06728C15.9552 5.96468 15.9653 6.2312 15.9653 8.50169C15.9653 10.7722 15.9552 11.0387 15.9147 11.9361C15.8776 12.766 15.7393 13.2147 15.6212 13.515C15.4661 13.9131 15.2839 14.1965 14.9871 14.4934C14.6903 14.7902 14.4069 14.9758 14.0089 15.1276C13.7087 15.2423 13.2601 15.384 12.4304 15.4211C11.5331 15.4616 11.2667 15.4717 8.99663 15.4717C6.72659 15.4717 6.46012 15.4616 5.5629 15.4211C4.73314 15.384 4.28452 15.2457 3.98433 15.1276C3.58631 14.9724 3.30298 14.7902 3.00615 14.4934C2.70933 14.1965 2.52381 13.9131 2.37202 13.515C2.25734 13.2147 2.11567 12.766 2.07857 11.9361C2.0381 11.0387 2.02798 10.7722 2.02798 8.50169C2.02798 6.2312 2.0381 5.96468 2.07857 5.06728C2.11567 4.23735 2.25397 3.78865 2.37202 3.48839C2.52718 3.0903 2.70933 2.80691 3.00615 2.51002C3.30298 2.21314 3.58631 2.02758 3.98433 1.87577C4.28452 1.76106 4.73314 1.61937 5.5629 1.58226C6.46012 1.5384 6.72996 1.53165 8.99663 1.53165ZM8.99663 0C6.68948 0 6.39941 0.0101211 5.49206 0.0506053C4.5881 0.0910895 3.97083 0.236158 3.43115 0.445326C2.87123 0.661242 2.39901 0.954753 1.92679 1.42707C1.45456 1.89938 1.16448 2.37507 0.945238 2.93173C0.736111 3.47152 0.591071 4.08891 0.550595 4.99643C0.510119 5.90058 0.5 6.19071 0.5 8.49831C0.5 10.8059 0.510119 11.0961 0.550595 12.0036C0.591071 12.9077 0.736111 13.5251 0.945238 14.0683C1.16111 14.6283 1.45456 15.1006 1.92679 15.5729C2.39901 16.0452 2.8746 16.3354 3.43115 16.5547C3.97083 16.7638 4.5881 16.9089 5.49544 16.9494C6.40278 16.9899 6.68948 17 9 17C11.3105 17 11.5972 16.9899 12.5046 16.9494C13.4085 16.9089 14.0258 16.7638 14.5689 16.5547C15.1288 16.3388 15.601 16.0452 16.0732 15.5729C16.5454 15.1006 16.8355 14.6249 17.0548 14.0683C17.2639 13.5285 17.4089 12.9111 17.4494 12.0036C17.4899 11.0961 17.5 10.8093 17.5 8.49831C17.5 6.18734 17.4899 5.90058 17.4494 4.99305C17.4089 4.08891 17.2639 3.47152 17.0548 2.92836C16.8389 2.36833 16.5454 1.89601 16.0732 1.4237C15.601 0.951379 15.1254 0.661242 14.5689 0.441953C14.0292 0.232784 13.4119 0.0877158 12.5046 0.0472316C11.5938 0.0101211 11.3038 0 8.99663 0Z" fill="white"/>
<path d="M8.99663 1.53165C11.2667 1.53165 11.5331 1.54177 12.4304 1.58226C13.2601 1.61937 13.7087 1.75769 14.0089 1.87577C14.4069 2.03096 14.6903 2.21314 14.9871 2.51002C15.2839 2.80691 15.4694 3.0903 15.6212 3.48839C15.7359 3.78865 15.8776 4.23735 15.9147 5.06728C15.9552 5.96468 15.9653 6.2312 15.9653 8.50169C15.9653 10.7722 15.9552 11.0387 15.9147 11.9361C15.8776 12.766 15.7393 13.2147 15.6212 13.515C15.4661 13.9131 15.2839 14.1965 14.9871 14.4934C14.6903 14.7902 14.4069 14.9758 14.0089 15.1276C13.7087 15.2423 13.2601 15.384 12.4304 15.4211C11.5331 15.4616 11.2667 15.4717 8.99663 15.4717C6.72659 15.4717 6.46012 15.4616 5.5629 15.4211C4.73314 15.384 4.28452 15.2457 3.98433 15.1276C3.58631 14.9724 3.30298 14.7902 3.00615 14.4934C2.70933 14.1965 2.52381 13.9131 2.37202 13.515C2.25734 13.2147 2.11567 12.766 2.07857 11.9361C2.0381 11.0387 2.02798 10.7722 2.02798 8.50169C2.02798 6.2312 2.0381 5.96468 2.07857 5.06728C2.11567 4.23735 2.25397 3.78865 2.37202 3.48839C2.52718 3.0903 2.70933 2.80691 3.00615 2.51002C3.30298 2.21314 3.58631 2.02758 3.98433 1.87577C4.28452 1.76106 4.73314 1.61937 5.5629 1.58226C6.46012 1.5384 6.72996 1.53165 8.99663 1.53165Z" fill="white"/>
<path d="M9 4C6.517 4 4.5 6.01352 4.5 8.5C4.5 10.9865 6.51352 13 9 13C11.4865 13 13.5 10.9865 13.5 8.5C13.5 6.01352 11.4865 4 9 4ZM9 11.4177C7.3864 11.4177 6.07883 10.1101 6.07883 8.49652C6.07883 6.88292 7.3864 5.57535 9 5.57535C10.6136 5.57535 11.9212 6.88292 11.9212 8.49652C11.9212 10.1101 10.6136 11.4177 9 11.4177Z" fill="#E34574"/>
<path d="M13.5 5C14.0523 5 14.5 4.55228 14.5 4C14.5 3.44772 14.0523 3 13.5 3C12.9477 3 12.5 3.44772 12.5 4C12.5 4.55228 12.9477 5 13.5 5Z" fill="#E34574"/>
</g>
<defs>
<clipPath id="clip0_95_26">
<rect width="17" height="17" fill="white" transform="translate(0.5)"/>
</clipPath>
</defs>
</svg>
