<svg width="96" height="95" viewBox="0 0 96 95" fill="none" xmlns="http://www.w3.org/2000/svg">
<path d="M48 0C21.504 0 0 21.28 0 47.5C0 73.72 21.504 95 48 95C74.496 95 96 73.72 96 47.5C96 21.28 74.496 0 48 0ZM49.584 71.25C48.72 71.535 47.232 71.535 46.368 71.25C38.88 68.7325 22.08 58.14 22.08 40.185C22.08 32.2525 28.512 25.84 36.48 25.84C41.184 25.84 45.36 28.0725 48 31.5875C50.592 28.12 54.816 25.84 59.52 25.84C67.488 25.84 73.92 32.2525 73.92 40.185C73.92 58.14 57.12 68.7325 49.584 71.25Z" fill="url(#paint0_linear_10_485)"/>
<defs>
<linearGradient id="paint0_linear_10_485" x1="48" y1="0" x2="48" y2="95" gradientUnits="userSpaceOnUse">
<stop stop-color="#FF407D"/>
<stop offset="1" stop-color="#FF76B9"/>
</linearGradient>
</defs>
</svg>
