<svg width="87" height="87" viewBox="0 0 87 87" fill="none" xmlns="http://www.w3.org/2000/svg">
<path d="M43.5 0.5C19.7517 0.5 0.5 19.7517 0.5 43.5C0.5 67.2483 19.7517 86.5 43.5 86.5C67.2483 86.5 86.5 67.2483 86.5 43.5C86.5 19.7517 67.2483 0.5 43.5 0.5ZM28.3724 60.6118C28.3724 61.7424 27.4558 62.659 26.3252 62.659H20.1839C19.0533 62.659 18.1367 61.7424 18.1367 60.6118V35.0228C18.1367 33.8922 19.0533 32.9756 20.1839 32.9756H26.3252C27.4558 32.9756 28.3724 33.8922 28.3724 35.0228V60.6118ZM70.3668 39.7928L65.5993 58.0678C64.8938 60.7721 62.4516 62.6589 59.6569 62.6589H42.7021C38.1798 62.6589 34.5137 58.9928 34.5137 54.4704V36.3675C34.5137 34.1959 35.3764 32.1131 36.9121 30.5775L48.8135 18.6761C49.4883 18.0013 50.4032 17.6224 51.3574 17.6224C54.0733 17.6224 55.8098 20.5165 54.5317 22.9129L50.8024 29.9051C50.0607 31.2961 51.0685 32.9757 52.6449 32.9757H65.1001C68.1062 32.9757 70.5431 35.4126 70.5431 38.4188C70.543 38.8824 70.4837 39.3441 70.3668 39.7928Z" fill="url(#paint0_linear_22_1800)"/>
<defs>
<linearGradient id="paint0_linear_22_1800" x1="43.5" y1="0.5" x2="43.5" y2="86.5" gradientUnits="userSpaceOnUse">
<stop stop-color="#4364F7"/>
<stop offset="1" stop-color="#7AB2FF"/>
</linearGradient>
</defs>
</svg>
