<svg width="57" height="89" viewBox="0 0 57 89" fill="none" xmlns="http://www.w3.org/2000/svg">
<path d="M47.4911 75.5832C44.6925 75.5832 40.8063 79.3791 37.9959 79.3791C34.5916 79.3791 31.4231 75.5832 28.5007 75.5832C25.5783 75.5832 22.4069 79.3791 19.007 79.3791C16.1981 79.3791 12.3119 75.5832 9.51181 75.5832C6.79869 75.5832 2.01793 77.8186 0.5 78.5647C0.502947 79.1833 0.556 79.827 0.59137 80.4589C2.8329 79.3346 6.18415 77.8572 8.32989 77.8572C11.3024 77.8572 15.4288 81.9719 18.4146 81.9719C22.0311 81.9719 25.3985 77.8572 28.5022 77.8572C31.6059 77.8572 34.9733 81.9719 38.5898 81.9719C41.5756 81.9719 45.705 77.8572 48.676 77.8572C50.8276 77.8572 54.198 79.3464 56.4396 80.4723L56.5 78.5647C54.985 77.8201 50.2028 75.5832 47.4911 75.5832Z" fill="url(#paint0_linear_10_461)"/>
<path d="M37.7999 85.839C34.4649 85.839 31.3627 82.0432 28.5007 82.0432C25.6402 82.0432 22.5366 85.839 19.2001 85.839C16.4516 85.839 12.6435 82.0432 9.90236 82.0432C7.26882 82.0432 2.65164 84.4625 1.11897 85.3065C1.31645 86.4383 1.54635 87.5805 1.85141 88.7567C1.85141 88.7567 7.6903 85.2042 10.735 85.2042C13.3523 85.2042 16.9895 88.9985 19.6157 88.9985C22.8004 88.9985 25.767 85.2042 28.4993 85.2042C31.2316 85.2042 34.1996 89 37.3843 89C40.009 89 43.6491 85.2056 46.2635 85.2056C49.3053 85.2056 55.1471 88.7582 55.1471 88.7582C55.4395 87.6191 55.6839 86.4679 55.8796 85.308C54.3498 84.4669 49.7282 82.0447 47.0977 82.0447C44.3551 82.0447 40.5484 85.839 37.7999 85.839Z" fill="url(#paint1_linear_10_461)"/>
<path d="M9.00339 73.8448C11.8757 73.8448 15.865 77.6406 18.7506 77.6406C22.2448 77.6406 25.5002 73.8448 28.4993 73.8448C31.4983 73.8448 34.7552 77.6406 38.2479 77.6406C41.1364 77.6406 45.1229 73.8448 47.9996 73.8448C50.4032 73.8448 54.4029 75.4646 56.4499 76.4139C55.5436 59.4416 43.4237 48.3062 39.5227 40.2117H40.2905V31.3117H39.393C41.2573 26.2031 44.7515 19.4287 43.0788 12.4392C43.0788 12.4392 42.7133 12.4407 42.0973 12.4748V0H40.3053V12.6336C37.1559 12.991 31.9994 14.0249 28.4993 17.0302C24.9992 14.0234 19.8397 12.991 16.6903 12.6336V0H14.9027V12.4763C14.2882 12.4422 13.9212 12.4407 13.9212 12.4407C12.2456 19.4302 15.7412 26.2031 17.607 31.3132H16.7065V40.2132H17.4758C13.5764 48.3077 1.46529 59.4446 0.556007 76.4139C2.60448 75.4616 6.5968 73.8448 9.00339 73.8448ZM38.8183 32.9804V38.5429H36.8258V38.5459C40.7223 45.8484 42.0826 58.252 42.0826 58.252L34.8672 60.8597C34.8672 60.8597 34.8613 50.5476 32.4091 39.826C32.8924 39.3395 33.2004 38.5059 33.3478 37.5447L36.3395 44.1826C36.083 41.6609 34.5415 38.8426 33.4112 37.0151C33.535 35.6193 33.3537 34.0707 32.8954 32.9804H38.8183ZM25.9866 32.043C27.0138 31.0091 30.6096 31.0091 31.6383 32.043C32.6802 33.0902 33.3449 38.1751 31.6383 39.8913C30.6155 40.9192 27.0079 40.9192 25.9866 39.8913C24.1046 37.9971 25.0301 33.0057 25.9866 32.043ZM21.1675 38.5429H18.1803V32.9804H24.728C24.2977 34.001 24.1076 35.4279 24.1901 36.7555C22.821 38.7017 21.838 40.7961 21.4225 41.6565L24.28 37.5654C24.3832 38.2389 24.5644 38.8515 24.8326 39.3247C23.4591 43.8963 22.2448 51.798 22.2448 51.798L16.6623 50.5001C16.6623 50.5001 18.024 43.7687 21.1675 38.5429Z" fill="url(#paint2_linear_10_461)"/>
<defs>
<linearGradient id="paint0_linear_10_461" x1="28.5" y1="0" x2="28.5" y2="89" gradientUnits="userSpaceOnUse">
<stop stop-color="#9600E6"/>
<stop offset="1" stop-color="#6B00A4"/>
</linearGradient>
<linearGradient id="paint1_linear_10_461" x1="28.5" y1="0" x2="28.5" y2="89" gradientUnits="userSpaceOnUse">
<stop stop-color="#9600E6"/>
<stop offset="1" stop-color="#6B00A4"/>
</linearGradient>
<linearGradient id="paint2_linear_10_461" x1="28.5" y1="0" x2="28.5" y2="89" gradientUnits="userSpaceOnUse">
<stop stop-color="#9600E6"/>
<stop offset="1" stop-color="#6B00A4"/>
</linearGradient>
</defs>
</svg>
