<svg width="17" height="14" viewBox="0 0 17 14" fill="none" xmlns="http://www.w3.org/2000/svg">
<path d="M14.8558 3.48597C14.8623 3.63997 14.8623 3.78697 14.8623 3.94097C14.8688 8.60998 11.5674 14 5.53006 14C3.74939 14 2.00122 13.447 0.5 12.411C0.759951 12.446 1.0199 12.46 1.27985 12.46C2.75508 12.46 4.19131 11.928 5.35459 10.941C3.95085 10.913 2.71608 9.92599 2.28716 8.48398C2.78107 8.58898 3.28798 8.56798 3.76889 8.42098C2.24167 8.09898 1.14338 6.64998 1.13688 4.96297C1.13688 4.94897 1.13688 4.93497 1.13688 4.92097C1.5918 5.19397 2.1052 5.34797 2.6251 5.36197C1.18887 4.32597 0.740455 2.26096 1.61129 0.643957C3.28148 2.85596 5.73802 4.19297 8.37652 4.33997C8.11007 3.11497 8.47401 1.82696 9.32535 0.958958C10.6446 -0.378046 12.7242 -0.308046 13.972 1.11296C14.7063 0.958958 15.4147 0.664957 16.0581 0.251956C15.8111 1.07096 15.2977 1.76396 14.6154 2.20496C15.2652 2.12096 15.9021 1.93196 16.5 1.65196C16.0581 2.36596 15.4992 2.98196 14.8558 3.48597Z" fill="white"/>
</svg>
