<svg width="18" height="17" viewBox="0 0 18 17" fill="none" xmlns="http://www.w3.org/2000/svg">
<g clip-path="url(#clip0_95_30)">
<path d="M0.5 17L1.70153 12.6369C0.958691 11.3562 0.569007 9.9059 0.573066 8.42324C0.573066 3.77733 4.37249 0 9.03653 0C11.3016 0 13.4286 0.876664 15.0239 2.46839C16.6232 4.06012 17.504 6.17704 17.5 8.42728C17.5 13.0732 13.7006 16.8505 9.03247 16.8505H9.02841C7.61174 16.8505 6.21943 16.495 4.98137 15.8244L0.5 17ZM5.19651 14.3013L5.45224 14.4548C6.53199 15.0932 7.77005 15.4285 9.03247 15.4325H9.03653C12.9131 15.4325 16.0711 12.2935 16.0711 8.43132C16.0711 6.56084 15.3405 4.80347 14.0131 3.47837C12.6858 2.15328 10.9159 1.42609 9.03653 1.42609C5.15998 1.42205 2.00191 4.56107 2.00191 8.42324C2.00191 9.7443 2.3713 11.033 3.0776 12.1481L3.24403 12.4147L2.53367 14.9962L5.19651 14.3013Z" fill="white"/>
<path d="M0.5 17L1.70153 12.6369C0.958691 11.3562 0.569007 9.9059 0.573066 8.42324C0.573066 3.77733 4.37249 0 9.03653 0C11.3016 0 13.4286 0.876664 15.0239 2.46839C16.6232 4.06012 17.504 6.17704 17.5 8.42728C17.5 13.0732 13.7006 16.8505 9.03247 16.8505H9.02841C7.61174 16.8505 6.21943 16.495 4.98137 15.8244L0.5 17ZM5.19651 14.3013L5.45224 14.4548C6.53199 15.0932 7.77005 15.4285 9.03247 15.4325H9.03653C12.9131 15.4325 16.0711 12.2935 16.0711 8.43132C16.0711 6.56084 15.3405 4.80347 14.0131 3.47837C12.6858 2.15328 10.9159 1.42609 9.03653 1.42609C5.15998 1.42205 2.00191 4.56107 2.00191 8.42324C2.00191 9.7443 2.3713 11.033 3.0776 12.1481L3.24403 12.4147L2.53367 14.9962L5.19651 14.3013Z" fill="white"/>
<path fill-rule="evenodd" clip-rule="evenodd" d="M6.78656 5.37049C6.62081 5.01629 6.44655 5.00814 6.2893 5.00407C6.1618 5 6.01304 5 5.86429 5C5.71553 5 5.47753 5.05293 5.27352 5.26464C5.06952 5.47634 4.5 5.98933 4.5 7.03566C4.5 8.07792 5.29477 9.08761 5.40528 9.2301C5.51578 9.3726 6.93957 11.5833 9.18788 12.4342C11.0579 13.1426 11.4404 13.0001 11.8442 12.9635C12.248 12.9269 13.1532 12.4505 13.3402 11.9538C13.523 11.4571 13.523 11.0337 13.4678 10.9441C13.4125 10.8546 13.2637 10.8016 13.0427 10.6958C12.8217 10.5899 11.7337 10.0769 11.5297 10.0037C11.3257 9.93444 11.1769 9.8978 11.0324 10.1095C10.8837 10.3212 10.4587 10.7976 10.3312 10.9401C10.2037 11.0826 10.0719 11.0988 9.8509 10.993C9.62989 10.8871 8.91587 10.6632 8.0701 9.93851C7.41133 9.37667 6.96507 8.68048 6.83756 8.46877C6.71006 8.25706 6.82481 8.14306 6.93532 8.03721C7.03307 7.94357 7.15632 7.78886 7.26683 7.66672C7.37733 7.54458 7.41558 7.45501 7.48783 7.31251C7.56009 7.17002 7.52608 7.04788 7.47083 6.94202C7.41558 6.84024 6.98207 5.78984 6.78656 5.37049Z" fill="white"/>
</g>
<defs>
<clipPath id="clip0_95_30">
<rect width="17" height="17" fill="white" transform="translate(0.5)"/>
</clipPath>
</defs>
</svg>
