<svg width="21" height="22" viewBox="0 0 21 22" fill="none" xmlns="http://www.w3.org/2000/svg">
<path d="M18.4123 8.2998H16.3639C15.9748 8.2998 15.6607 7.98574 15.6607 7.59668C15.6607 7.20762 15.9748 6.89355 16.3639 6.89355H18.4123C18.8014 6.89355 19.1154 7.20762 19.1154 7.59668C19.1154 7.98574 18.799 8.2998 18.4123 8.2998ZM14.1209 8.2998H4.76465C4.37559 8.2998 4.06152 7.98574 4.06152 7.59668C4.06152 7.20762 4.37559 6.89355 4.76465 6.89355H14.1209C14.51 6.89355 14.824 7.20762 14.824 7.59668C14.824 7.98574 14.5076 8.2998 14.1209 8.2998Z" fill="#33CC99"/>
<path d="M7.4624 19.7891C7.4624 19.9583 7.49574 20.126 7.56053 20.2824C7.62531 20.4388 7.72026 20.5809 7.83996 20.7006C7.95966 20.8203 8.10177 20.9152 8.25816 20.98C8.41456 21.0448 8.58218 21.0781 8.75146 21.0781C8.92075 21.0781 9.08837 21.0448 9.24477 20.98C9.40116 20.9152 9.54327 20.8203 9.66297 20.7006C9.78267 20.5809 9.87762 20.4388 9.9424 20.2824C10.0072 20.126 10.0405 19.9583 10.0405 19.7891C10.0405 19.6198 10.0072 19.4522 9.9424 19.2958C9.87762 19.1394 9.78267 18.9973 9.66297 18.8776C9.54327 18.7579 9.40116 18.6629 9.24477 18.5981C9.08837 18.5333 8.92075 18.5 8.75146 18.5C8.58218 18.5 8.41456 18.5333 8.25816 18.5981C8.10177 18.6629 7.95966 18.7579 7.83996 18.8776C7.72026 18.9973 7.62531 19.1394 7.56053 19.2958C7.49574 19.4522 7.4624 19.6198 7.4624 19.7891Z" fill="#FFB89A"/>
<path d="M17.3364 19.7891C17.3364 20.1309 17.4722 20.4588 17.714 20.7006C17.9557 20.9423 18.2836 21.0781 18.6255 21.0781C18.9674 21.0781 19.2952 20.9423 19.537 20.7006C19.7787 20.4588 19.9146 20.1309 19.9146 19.7891C19.9146 19.4472 19.7787 19.1193 19.537 18.8776C19.2952 18.6358 18.9674 18.5 18.6255 18.5C18.2836 18.5 17.9557 18.6358 17.714 18.8776C17.4722 19.1193 17.3364 19.4472 17.3364 19.7891Z" fill="#FFB89A"/>
<path d="M19.4528 16.2475H7.47627C6.59268 16.2475 5.87315 15.528 5.87315 14.6444V14.6116L5.03174 5.65142V5.64673V5.64205L4.89112 4.34361C4.68956 2.30923 3.54112 1.5897 2.61065 1.34127L0.977056 0.940484C0.599713 0.846734 0.220025 1.07877 0.126275 1.45611C0.0325251 1.83345 0.264556 2.21314 0.6419 2.30689L2.25674 2.70298C2.63643 2.80377 2.91534 2.99361 3.11456 3.28189C3.31612 3.57252 3.44268 3.97798 3.4919 4.48658L3.63253 5.7897L4.4669 14.6795C4.48565 16.3225 5.82862 17.6538 7.47627 17.6538H19.4528C19.8419 17.6538 20.156 17.3397 20.156 16.9506C20.156 16.5616 19.8419 16.2475 19.4528 16.2475Z" fill="#45484C"/>
<path d="M18.2927 3.95923H7.52783C7.13877 3.95923 6.82471 4.27329 6.82471 4.66235C6.82471 5.05142 7.13877 5.36548 7.52783 5.36548H18.2927C19.0005 5.36548 19.5794 5.93501 19.5935 6.63813L19.1271 11.9467L19.1247 11.9772V12.0077C19.1247 12.7249 18.5411 13.3084 17.8239 13.3084H8.81689C8.42783 13.3084 8.11377 13.6225 8.11377 14.0116C8.11377 14.4006 8.42783 14.7147 8.81689 14.7147H17.8239C19.3052 14.7147 20.5122 13.517 20.531 12.0405L20.9974 6.72954L20.9997 6.69907V6.6686C20.9997 5.17329 19.7856 3.95923 18.2927 3.95923Z" fill="#45484C"/>
<path d="M8.17227 19.0601C8.34102 19.0601 8.4793 19.1983 8.4793 19.3671C8.4793 19.5358 8.34102 19.6741 8.17227 19.6741C8.00352 19.6741 7.86523 19.5358 7.86523 19.3671C7.86523 19.1983 8.00352 19.0601 8.17227 19.0601ZM8.17227 17.6538C7.22539 17.6538 6.45898 18.4202 6.45898 19.3671C6.45898 20.314 7.22539 21.0804 8.17227 21.0804C9.11914 21.0804 9.88555 20.314 9.88555 19.3671C9.88555 18.4202 9.11914 17.6538 8.17227 17.6538ZM17.8895 19.0601C18.0582 19.0601 18.1965 19.1983 18.1965 19.3671C18.1965 19.5358 18.0582 19.6741 17.8895 19.6741C17.7207 19.6741 17.5824 19.5358 17.5824 19.3671C17.5824 19.1983 17.7207 19.0601 17.8895 19.0601ZM17.8895 17.6538C16.9426 17.6538 16.1762 18.4202 16.1762 19.3671C16.1762 20.314 16.9426 21.0804 17.8895 21.0804C18.8363 21.0804 19.6027 20.314 19.6027 19.3671C19.6027 18.4202 18.8363 17.6538 17.8895 17.6538Z" fill="#45484C"/>
</svg>
