<svg width="23" height="22" viewBox="0 0 23 22" fill="none" xmlns="http://www.w3.org/2000/svg">
<path d="M15.8831 0.625H6.82748C5.62466 0.625 5.02325 0.625 4.53995 0.9237C4.05664 1.2224 3.78768 1.76031 3.24977 2.83614L1.84615 6.38429C1.52186 7.20405 1.23813 8.17025 1.78401 8.8625C2.15023 9.3269 2.71791 9.625 3.35525 9.625C4.45982 9.625 5.35525 8.7296 5.35525 7.625C5.35525 8.7296 6.25069 9.625 7.35525 9.625C8.45982 9.625 9.35525 8.7296 9.35525 7.625C9.35525 8.7296 10.2507 9.625 11.3553 9.625C12.4599 9.625 13.3553 8.7296 13.3553 7.625C13.3553 8.7296 14.2507 9.625 15.3553 9.625C16.4599 9.625 17.3553 8.7296 17.3553 7.625C17.3553 8.7296 18.2507 9.625 19.3553 9.625C19.9926 9.625 20.5603 9.3269 20.9266 8.8625C21.4725 8.17025 21.1888 7.20405 20.8645 6.38429L19.4609 2.83614C18.9229 1.76031 18.654 1.2224 18.1707 0.9237C17.6874 0.625 17.086 0.625 15.8831 0.625Z" fill="#FF5858"/>
<path fill-rule="evenodd" clip-rule="evenodd" d="M19.3555 19.8749H21.3555C21.7697 19.8749 22.1055 20.2107 22.1055 20.6249C22.1055 21.0391 21.7697 21.3749 21.3555 21.3749H1.35547C0.941259 21.3749 0.605469 21.0391 0.605469 20.6249C0.605469 20.2107 0.941259 19.8749 1.35547 19.8749H3.35547V11.1249C4.0991 11.1249 4.78856 10.893 5.35547 10.4976C5.92239 10.893 6.61185 11.1249 7.35547 11.1249C8.0991 11.1249 8.78856 10.893 9.35547 10.4976C9.92237 10.893 10.6119 11.1249 11.3555 11.1249C12.0991 11.1249 12.7886 10.893 13.3555 10.4976C13.9224 10.893 14.6119 11.1249 15.3555 11.1249C16.0991 11.1249 16.7886 10.893 17.3555 10.4976C17.9224 10.893 18.6119 11.1249 19.3555 11.1249V19.8749ZM8.85547 19.8749H13.8555V17.1249C13.8555 16.1903 13.8555 15.723 13.6545 15.3749C13.5229 15.1469 13.3335 14.9575 13.1055 14.8258C12.7574 14.6249 12.2901 14.6249 11.3555 14.6249C10.4209 14.6249 9.95357 14.6249 9.60547 14.8258C9.37747 14.9575 9.18808 15.1469 9.05643 15.3749C8.85547 15.723 8.85547 16.1903 8.85547 17.1249V19.8749Z" fill="#3572EF"/>
</svg>
