<svg width="21" height="20" viewBox="0 0 21 20" fill="none" xmlns="http://www.w3.org/2000/svg">
<path d="M10.6055 0C5.08547 0 0.605469 4.48 0.605469 10C0.605469 15.52 5.08547 20 10.6055 20C16.1255 20 20.6055 15.52 20.6055 10C20.6055 4.48 16.1255 0 10.6055 0ZM10.9355 15C10.7555 15.06 10.4455 15.06 10.2655 15C8.70547 14.47 5.20547 12.24 5.20547 8.46C5.20547 6.79 6.54547 5.44 8.20547 5.44C9.18547 5.44 10.0555 5.91 10.6055 6.65C11.1455 5.92 12.0255 5.44 13.0055 5.44C14.6655 5.44 16.0055 6.79 16.0055 8.46C16.0055 12.24 12.5055 14.47 10.9355 15Z" fill="#FF407D"/>
</svg>
