<svg width="24" height="24" viewBox="0 0 24 24" fill="none" xmlns="http://www.w3.org/2000/svg">
<rect width="24" height="24" rx="12" fill="url(#paint0_linear_89_15)"/>
<path d="M17.5 7.50503C17.5 7.50503 16.491 8.10103 15.93 8.27003C15.6289 7.92378 15.2287 7.67837 14.7835 7.56699C14.3384 7.45561 13.8697 7.48363 13.441 7.64725C13.0123 7.81088 12.6442 8.10223 12.3865 8.48189C12.1288 8.86154 11.9938 9.3112 12 9.77003V10.27C11.1213 10.2928 10.2506 10.0979 9.4655 9.70275C8.68037 9.30757 8.00516 8.72435 7.5 8.00503C7.5 8.00503 5.5 12.505 10 14.505C8.97026 15.204 7.74358 15.5545 6.5 15.505C11 18.005 16.5 15.505 16.5 9.75503C16.5 9.61603 16.486 9.47703 16.46 9.34003C16.97 8.83703 17.5 7.50503 17.5 7.50503Z" stroke="white" stroke-linecap="round" stroke-linejoin="round"/>
<defs>
<linearGradient id="paint0_linear_89_15" x1="12" y1="-10.4516" x2="12" y2="31.3548" gradientUnits="userSpaceOnUse">
<stop stop-color="#F96524"/>
<stop offset="1" stop-color="#EA5210"/>
</linearGradient>
</defs>
</svg>
