<svg width="24" height="24" viewBox="0 0 24 24" fill="none" xmlns="http://www.w3.org/2000/svg">
<rect x="0.5" y="0.5" width="23" height="23" rx="11.5" stroke="url(#paint0_linear_89_27)"/>
<path d="M13 12L11.25 13V11L13 12Z" fill="url(#paint1_linear_89_27)" stroke="url(#paint2_linear_89_27)" stroke-linecap="round" stroke-linejoin="round"/>
<path d="M7 12.3535V11.646C7 10.1985 7 9.47445 7.4525 9.00895C7.9055 8.54295 8.6185 8.52295 10.044 8.48245C10.719 8.46345 11.409 8.44995 12 8.44995C12.5905 8.44995 13.2805 8.46345 13.956 8.48245C15.3815 8.52295 16.0945 8.54295 16.547 9.00895C17 9.47445 17 10.199 17 11.646V12.3535C17 13.8015 17 14.525 16.5475 14.991C16.0945 15.4565 15.382 15.477 13.956 15.517C13.281 15.5365 12.591 15.55 12 15.55C11.3479 15.548 10.6958 15.537 10.044 15.517C8.6185 15.477 7.9055 15.457 7.4525 14.991C7 14.525 7 13.801 7 12.354V12.3535Z" stroke="url(#paint3_linear_89_27)"/>
<defs>
<linearGradient id="paint0_linear_89_27" x1="12" y1="-10.4516" x2="12" y2="31.3548" gradientUnits="userSpaceOnUse">
<stop stop-color="#F96524"/>
<stop offset="1" stop-color="#EA5210"/>
</linearGradient>
<linearGradient id="paint1_linear_89_27" x1="12.125" y1="10.129" x2="12.125" y2="13.6129" gradientUnits="userSpaceOnUse">
<stop stop-color="#F96524"/>
<stop offset="1" stop-color="#EA5210"/>
</linearGradient>
<linearGradient id="paint2_linear_89_27" x1="12.125" y1="10.129" x2="12.125" y2="13.6129" gradientUnits="userSpaceOnUse">
<stop stop-color="#F96524"/>
<stop offset="1" stop-color="#EA5210"/>
</linearGradient>
<linearGradient id="paint3_linear_89_27" x1="12" y1="5.35802" x2="12" y2="17.7258" gradientUnits="userSpaceOnUse">
<stop stop-color="#F96524"/>
<stop offset="1" stop-color="#EA5210"/>
</linearGradient>
</defs>
</svg>
